<svg width="33" height="30" viewBox="0 0 33 30" fill="none" xmlns="http://www.w3.org/2000/svg">
<path d="M31.5355 11.4648L20.803 0.732346L17.268 4.26734L25.5005 12.4998H0.500488V17.4998H25.5005L17.268 25.7323L20.803 29.2673L31.5355 18.5348C32.4728 17.5972 32.9994 16.3257 32.9994 14.9998C32.9994 13.674 32.4728 12.4025 31.5355 11.4648V11.4648Z" fill="white"/>
<path d="M20.803 1.43945L31.1819 11.8183C31.1819 11.8184 31.1819 11.8184 31.1819 11.8184C32.0255 12.6623 32.4994 13.8066 32.4994 14.9998C32.4994 16.1931 32.0255 17.3374 31.1819 18.1813C31.1819 18.1813 31.1819 18.1813 31.1819 18.1813L20.803 28.5602L17.9751 25.7323L25.854 17.8534L26.7076 16.9998H25.5005H1.00049V12.9998H25.5005H26.7076L25.854 12.1463L17.9751 4.26734L20.803 1.43945Z" stroke="#009743" stroke-opacity="0.8"/>
</svg>
