<svg width="25" height="25" viewBox="0 0 25 25" fill="none" xmlns="http://www.w3.org/2000/svg">
<g clip-path="url(#clip0_334_6544)">
<path d="M19.5 2.021V0.0209961H17.5V2.021H15.5V0.0209961H13.5V2.021H11.5V0.0209961H9.5V2.021H7.5V0.0209961H5.5V2.021H3.5V21.021C3.5 21.8166 3.81607 22.5797 4.37868 23.1423C4.94129 23.7049 5.70435 24.021 6.5 24.021H18.5C19.2956 24.021 20.0587 23.7049 20.6213 23.1423C21.1839 22.5797 21.5 21.8166 21.5 21.021V2.021H19.5ZM13.5 17.021H7.5V15.021H13.5V17.021ZM17.5 13.021H7.5V11.021H17.5V13.021ZM17.5 9.021H7.5V7.021H17.5V9.021Z" fill="#828282" stroke="white" stroke-width="0.5"/>
</g>
<defs>
<clipPath id="clip0_334_6544">
<rect width="24" height="24" fill="white" transform="translate(0.5 0.0209961)"/>
</clipPath>
</defs>
</svg>
