<svg width="43" height="43" viewBox="0 0 43 43" fill="none" xmlns="http://www.w3.org/2000/svg">
<g clip-path="url(#clip0_319_6541)">
<path d="M38.125 21.5V21.4995C38.1201 17.0919 36.3671 12.8662 33.2504 9.7496C30.1338 6.63297 25.9081 4.8799 21.5006 4.87501L21.5 5.37501V4.87501C18.2119 4.87501 14.9976 5.85005 12.2637 7.67683C9.52969 9.5036 7.39882 12.1001 6.14051 15.1379C4.88221 18.1757 4.55297 21.5184 5.19445 24.7434C5.83593 27.9683 7.41931 30.9306 9.74436 33.2557C12.0694 35.5807 15.0317 37.1641 18.2566 37.8056C21.4816 38.447 24.8243 38.1178 27.8621 36.8595C30.8999 35.6012 33.4964 33.4703 35.3232 30.7364C37.15 28.0024 38.125 24.7881 38.125 21.5ZM21.4995 42.5C17.3462 42.4999 13.2863 41.2683 9.83303 38.9609C6.3796 36.6534 3.68798 33.3736 2.09854 29.5364C0.509099 25.6991 0.0932292 21.4767 0.903519 17.4031C1.71381 13.3295 3.71386 9.58767 6.65077 6.65077C9.58767 3.71386 13.3295 1.71381 17.4031 0.903519C21.4767 0.0932292 25.6991 0.509099 29.5364 2.09854C33.3736 3.68798 36.6534 6.3796 38.9609 9.83303C41.2683 13.2863 42.4999 17.3462 42.5 21.4995C42.494 27.0673 40.2795 32.4054 36.3424 36.3424C32.4054 40.2795 27.0673 42.494 21.4995 42.5Z" fill="#151515" stroke="white"/>
<path d="M23.6874 22.5041L15.2459 27.791L12.9244 24.0841L19.0778 20.2305L19.3124 20.0836V19.8067V11.7372H23.6874V22.5041Z" fill="#151515" stroke="white"/>
</g>
<defs>
<clipPath id="clip0_319_6541">
<rect width="43" height="43" fill="white"/>
</clipPath>
</defs>
</svg>
