<svg width="83" height="83" viewBox="0 0 83 83" fill="none" xmlns="http://www.w3.org/2000/svg">
<path d="M35.0595 13.9835V13.9858V21.8233C35.0595 26.2356 33.8967 29.5234 31.71 31.71C29.5234 33.8966 26.2356 35.0595 21.8233 35.0595H13.9858C9.57338 35.0595 6.28563 33.8966 4.099 31.71C1.91238 29.5234 0.749512 26.2356 0.749512 21.8233V13.9858C0.749512 9.57338 1.91236 6.28592 4.10377 4.0994C6.29535 1.91269 9.59342 0.749512 14.027 0.749512H21.8645C26.2771 0.749512 29.5645 1.91246 31.7457 4.09861C33.9268 6.28456 35.0798 9.57151 35.0595 13.9835Z" fill="#6D6D6D" stroke="white"/>
<path d="M61.1744 0.749512H69.0119C73.4242 0.749512 76.712 1.91238 78.8986 4.099C81.0852 6.28563 82.2481 9.57338 82.2481 13.9858V21.8233C82.2481 26.2356 81.0852 29.5234 78.8986 31.71C76.712 33.8966 73.4242 35.0595 69.0119 35.0595H61.1744C56.762 35.0595 53.4742 33.8966 51.2876 31.71C49.101 29.5234 47.9381 26.2356 47.9381 21.8233V13.9858C47.9381 9.57338 49.101 6.28563 51.2876 4.099C53.4742 1.91238 56.762 0.749512 61.1744 0.749512Z" fill="#6D6D6D" stroke="white"/>
<path d="M61.1744 47.8984H69.0119C73.4242 47.8984 76.712 49.0613 78.8986 51.2479C81.0852 53.4346 82.2481 56.7223 82.2481 61.1347V68.9722C82.2481 73.3846 81.0852 76.6723 78.8986 78.8589C76.712 81.0456 73.4242 82.2084 69.0119 82.2084H61.1744C56.762 82.2084 53.4742 81.0456 51.2876 78.8589C49.101 76.6723 47.9381 73.3846 47.9381 68.9722V61.1347C47.9381 56.7223 49.101 53.4346 51.2876 51.2479C53.4742 49.0613 56.762 47.8984 61.1744 47.8984Z" fill="#6D6D6D" stroke="white"/>
<path d="M35.0595 61.1737V61.1759V69.0134C35.0595 73.4258 33.8967 76.7136 31.71 78.9002C29.5234 81.0868 26.2356 82.2497 21.8233 82.2497H13.9858C9.57338 82.2497 6.28592 81.0868 4.0994 78.8954C1.91269 76.7038 0.749512 73.4058 0.749512 68.9722V61.1347C0.749512 56.7223 1.91236 53.4348 4.10377 51.2483C6.29535 49.0616 9.59342 47.8984 14.027 47.8984H21.8645C26.2771 47.8984 29.5642 49.0614 31.7453 51.2523C33.9265 53.4432 35.0798 56.7405 35.0595 61.1737Z" fill="#6D6D6D" stroke="white"/>
</svg>
