<svg width="24" height="24" viewBox="0 0 24 24" fill="none" xmlns="http://www.w3.org/2000/svg">
<g clip-path="url(#clip0_222_6243)">
<path d="M12.033 18.5H12.0321C11.7038 18.5001 11.3787 18.4353 11.0756 18.3094C10.7724 18.1834 10.4971 17.9989 10.2655 17.7662L10.2647 17.7654L6.69954 14.2002L7.40594 13.4949L10.6726 16.7616L11.5281 17.617L11.5262 16.4072L11.501 0.5H12.501L12.5262 16.4248L12.5281 17.6294L13.3798 16.7775L16.6597 13.4967L17.3657 14.2006L13.8005 17.7686L13.8003 17.7688C13.5684 18.0011 13.2929 18.1853 12.9896 18.3108C12.6864 18.4362 12.3613 18.5006 12.033 18.5Z" fill="#34A853" stroke="#34A853"/>
<path d="M22.5 21.0004V16.5004H23.5V21.0004C23.5 21.6634 23.2366 22.2993 22.7678 22.7681C22.2989 23.237 21.663 23.5004 21 23.5004H3C2.33696 23.5004 1.70107 23.237 1.23223 22.7681C0.763392 22.2993 0.5 21.6634 0.5 21.0004V16.5004H1.5V21.0004C1.5 21.3982 1.65803 21.7797 1.93934 22.061C2.22065 22.3423 2.60218 22.5004 3 22.5004H21C21.3978 22.5004 21.7794 22.3423 22.0607 22.061C22.342 21.7797 22.5 21.3982 22.5 21.0004Z" fill="#34A853" stroke="#34A853"/>
</g>
<defs>
<clipPath id="clip0_222_6243">
<rect width="24" height="24" fill="white"/>
</clipPath>
</defs>
</svg>
