<svg width="416" height="135" viewBox="0 0 416 135" fill="none" xmlns="http://www.w3.org/2000/svg">
<path fill-rule="evenodd" clip-rule="evenodd" d="M2.0896 130.559V83.2414C2.0896 76.701 7.93912 71.7115 14.3977 72.7429C15.9249 72.9868 17.4869 72.8946 18.9748 72.4726L24.9989 70.7644C28.9276 69.6503 33.1523 70.705 36.0963 73.5349C41.2469 78.4859 49.619 77.5862 53.6 71.6539L54.9773 69.6015C58.3126 64.6315 64.5111 62.4351 70.2315 64.1962L72.8193 64.9929C74.4127 65.4834 76.0688 65.7398 77.7359 65.7539L82.2208 65.7921C87.148 65.8339 91.903 67.6097 95.6515 70.8078L97.8316 72.6677C101.965 76.1944 107.622 77.3474 112.807 75.7199C116.834 74.4554 120.188 71.6306 122.118 67.8762L130.027 52.4943C132.103 48.4562 136.973 46.7443 141.119 48.5948C145.201 50.4168 149.998 48.7876 152.126 44.8564L154.345 40.7583C158.66 32.7873 169.423 31.1984 175.858 37.5826L176.759 38.4765C177.324 39.0371 177.934 39.5503 178.583 40.0109L192.234 49.7013L199.494 55.6399C203.374 58.8131 209.167 57.7961 211.734 53.4912C215.42 47.3089 224.713 48.5326 226.673 55.4584L228.208 60.8809C230.905 70.411 244.021 71.3993 248.116 62.381L250.74 56.6023L261.945 36.1492C264.193 32.0468 267.399 28.549 271.291 25.9541L277.017 22.136C278.985 20.824 280.704 19.1723 282.093 17.2582L288.178 8.87453C291.663 4.07265 298.484 3.22247 303.042 7.02194C306.681 10.056 311.925 10.2014 315.727 7.37348L316.139 7.06675C320.556 3.78146 326.728 4.30254 330.532 8.28175L331.29 9.07538C335.436 13.4133 342.129 14.0739 347.043 10.6303L347.806 10.0956C351.161 7.7446 355.416 7.08021 359.328 8.29649L360.811 8.7575C365.231 10.1316 368.864 13.31 370.813 17.5079L378.375 33.7892C380.378 38.102 385.958 39.2882 389.542 36.163C393.214 32.9611 398.943 34.2965 400.822 38.7919L411.631 64.6668V130.559" fill="url(#paint0_linear_153_8617)"/>
<path d="M2.0896 130.559V83.2414C2.0896 76.701 7.93912 71.7115 14.3977 72.7429V72.7429C15.9249 72.9868 17.4869 72.8946 18.9748 72.4726L24.9989 70.7644C28.9276 69.6503 33.1523 70.705 36.0963 73.5349V73.5349C41.2469 78.4859 49.619 77.5862 53.6 71.6539L54.9773 69.6015C58.3126 64.6315 64.5111 62.4351 70.2315 64.1962L72.8193 64.9929C74.4127 65.4834 76.0688 65.7398 77.7359 65.7539L82.2208 65.7921C87.148 65.8339 91.903 67.6097 95.6515 70.8078L97.8316 72.6677C101.965 76.1944 107.622 77.3474 112.807 75.7199V75.7199C116.834 74.4554 120.188 71.6306 122.118 67.8762L130.027 52.4943C132.103 48.4562 136.973 46.7443 141.119 48.5948V48.5948C145.201 50.4168 149.998 48.7876 152.127 44.8564L154.345 40.7583C158.66 32.7873 169.423 31.1984 175.858 37.5826L176.759 38.4765C177.324 39.0371 177.934 39.5502 178.583 40.0109L192.234 49.7013L199.494 55.6399C203.374 58.8131 209.167 57.7961 211.734 53.4912V53.4912C215.42 47.3089 224.713 48.5326 226.673 55.4584L228.208 60.8809C230.905 70.411 244.021 71.3993 248.116 62.381L250.74 56.6023L261.945 36.1492C264.193 32.0468 267.399 28.549 271.291 25.9541L277.017 22.136C278.985 20.824 280.704 19.1723 282.093 17.2582L288.178 8.87453C291.663 4.07265 298.484 3.22247 303.042 7.02194V7.02194C306.681 10.056 311.925 10.2014 315.727 7.37348L316.139 7.06675C320.556 3.78146 326.728 4.30254 330.532 8.28175L331.29 9.07538C335.436 13.4133 342.129 14.0739 347.043 10.6303L347.806 10.0956C351.161 7.7446 355.416 7.08021 359.328 8.29649L360.811 8.7575C365.231 10.1316 368.864 13.31 370.813 17.5079L378.375 33.7892C380.378 38.102 385.958 39.2882 389.542 36.163V36.163C393.214 32.9611 398.943 34.2965 400.821 38.7919L411.631 64.6668M411.631 64.6668V130.559M411.631 64.6668V114.128" stroke="#009743" stroke-linecap="round" stroke-linejoin="round"/>
<rect x="409.18" y="44" width="6.81967" height="91" rx="3.40984" fill="#F9F9F9"/>
<rect y="58.6184" width="4.5589" height="76.3816" rx="2.27945" fill="#F9F9F9"/>
<defs>
<linearGradient id="paint0_linear_153_8617" x1="206.86" y1="0" x2="206.86" y2="130.559" gradientUnits="userSpaceOnUse">
<stop stop-color="#009743"/>
<stop offset="1" stop-color="white" stop-opacity="0"/>
</linearGradient>
</defs>
</svg>
