<svg width="24" height="24" viewBox="0 0 24 24" fill="none" xmlns="http://www.w3.org/2000/svg">
<path d="M10.4093 19.587C8.8213 21.2338 6.2351 21.3857 4.46523 19.9361C3.41119 19.0235 2.87278 17.6513 3.02497 16.2654C3.15676 15.2436 3.63431 14.2977 4.37822 13.5849L7.25477 10.7064C7.84045 10.1205 7.84045 9.17087 7.25477 8.58501C6.66891 7.99933 5.71924 7.99933 5.13338 8.58501L2.31786 11.4016C1.03447 12.6391 0.225112 14.2872 0.0304036 16.0594C-0.333274 20.051 2.6077 23.5816 6.59929 23.9453C8.74286 24.1406 10.8626 23.3743 12.3857 21.8534L15.3943 18.8459C15.9799 18.26 15.9799 17.3104 15.3943 16.7245C14.8084 16.1388 13.8587 16.1388 13.2729 16.7245L10.4093 19.587Z" fill="#151515"/>
<path d="M21.1615 1.4672C18.1747 -0.727239 14.0271 -0.383205 11.4427 2.27337L8.61113 5.1059C8.02546 5.69176 8.02546 6.64144 8.61113 7.2273C9.19699 7.81297 10.1467 7.81297 10.7325 7.2273L13.6091 4.35375C15.1624 2.74718 17.6757 2.56621 19.4432 3.93367C21.2624 5.42542 21.5279 8.10946 20.0361 9.9287C19.9488 10.0352 19.8564 10.1373 19.7592 10.2348L16.7506 13.2434C16.165 13.8293 16.165 14.779 16.7506 15.3648C17.3365 15.9505 18.2862 15.9505 18.872 15.3648L21.8806 12.3562C24.713 9.51481 24.7057 4.91527 21.8642 2.08288C21.6435 1.86281 21.4087 1.65718 21.1615 1.4672Z" fill="#151515"/>
<path d="M8.61082 13.2459L13.2722 8.58445C13.8581 7.99854 14.8081 7.99854 15.394 8.58445C15.9799 9.17036 15.9799 10.1203 15.394 10.7062L10.7325 15.3676C10.1466 15.9535 9.19672 15.9535 8.61082 15.3676C8.02491 14.7817 8.02491 13.8318 8.61082 13.2459Z" fill="#151515"/>
</svg>
