<svg width="100" height="99" viewBox="0 0 100 99" fill="none" xmlns="http://www.w3.org/2000/svg">
<rect width="100" height="99" rx="20" fill="#FFD434"/>
<path d="M50.3911 73.7822C49.76 73.7822 49.2313 73.5691 48.8051 73.143C48.3775 72.7153 48.1636 72.1859 48.1636 71.5547V69.3272C43.523 68.8075 39.5417 66.8867 36.2198 63.5647C32.8963 60.2413 30.9747 56.2592 30.455 51.6186H28.2275C27.5964 51.6186 27.067 51.4048 26.6393 50.9771C26.2131 50.5509 26 50.0222 26 49.3911C26 48.76 26.2131 48.2306 26.6393 47.8029C27.067 47.3767 27.5964 47.1636 28.2275 47.1636H30.455C30.9747 42.523 32.8963 38.541 36.2198 35.2175C39.5417 31.8956 43.523 29.9747 48.1636 29.455V27.2275C48.1636 26.5964 48.3775 26.067 48.8051 25.6393C49.2313 25.2131 49.76 25 50.3911 25C51.0222 25 51.5516 25.2131 51.9793 25.6393C52.4055 26.067 52.6186 26.5964 52.6186 27.2275V29.455C57.2592 29.9747 61.2413 31.8956 64.5647 35.2175C67.8867 38.541 69.8075 42.523 70.3272 47.1636H72.5547C73.1859 47.1636 73.7153 47.3767 74.143 47.8029C74.5691 48.2306 74.7822 48.76 74.7822 49.3911C74.7822 50.0222 74.5691 50.5509 74.143 50.9771C73.7153 51.4048 73.1859 51.6186 72.5547 51.6186H70.3272C69.8075 56.2592 67.8867 60.2413 64.5647 63.5647C61.2413 66.8867 57.2592 68.8075 52.6186 69.3272V71.5547C52.6186 72.1859 52.4055 72.7153 51.9793 73.143C51.5516 73.5691 51.0222 73.7822 50.3911 73.7822ZM50.3911 64.9836C54.6976 64.9836 58.373 63.4615 61.4172 60.4172C64.4615 57.373 65.9836 53.6976 65.9836 49.3911C65.9836 45.0846 64.4615 41.4092 61.4172 38.365C58.373 35.3207 54.6976 33.7986 50.3911 33.7986C46.0846 33.7986 42.4092 35.3207 39.365 38.365C36.3207 41.4092 34.7986 45.0846 34.7986 49.3911C34.7986 53.6976 36.3207 57.373 39.365 60.4172C42.4092 63.4615 46.0846 64.9836 50.3911 64.9836ZM50.3911 58.3011C47.9409 58.3011 45.8433 57.4287 44.0984 55.6838C42.3536 53.9389 41.4811 51.8414 41.4811 49.3911C41.4811 46.9409 42.3536 44.8433 44.0984 43.0984C45.8433 41.3536 47.9409 40.4811 50.3911 40.4811C52.8414 40.4811 54.9389 41.3536 56.6838 43.0984C58.4287 44.8433 59.3011 46.9409 59.3011 49.3911C59.3011 51.8414 58.4287 53.9389 56.6838 55.6838C54.9389 57.4287 52.8414 58.3011 50.3911 58.3011ZM50.3911 53.8461C51.6162 53.8461 52.6654 53.4095 53.5386 52.5364C54.4103 51.6647 54.8461 50.6162 54.8461 49.3911C54.8461 48.166 54.4103 47.1168 53.5386 46.2437C52.6654 45.372 51.6162 44.9361 50.3911 44.9361C49.166 44.9361 48.1176 45.372 47.2459 46.2437C46.3727 47.1168 45.9361 48.166 45.9361 49.3911C45.9361 50.6162 46.3727 51.6647 47.2459 52.5364C48.1176 53.4095 49.166 53.8461 50.3911 53.8461Z" fill="white"/>
</svg>
