<svg width="25" height="25" viewBox="0 0 25 25" fill="none" xmlns="http://www.w3.org/2000/svg">
<path fill-rule="evenodd" clip-rule="evenodd" d="M10.638 1.83598C11.0859 1.70161 11.559 1.67382 12.0196 1.75481C12.4802 1.83581 12.9154 2.02335 13.2906 2.30246C13.6658 2.58158 13.9706 2.94454 14.1805 3.36237C14.3905 3.78021 14.4999 4.24135 14.5 4.70898V19.333C14.4999 19.8006 14.3905 20.2618 14.1805 20.6796C13.9706 21.0974 13.6658 21.4604 13.2906 21.7395C12.9154 22.0186 12.4802 22.2062 12.0196 22.2871C11.559 22.3681 11.0859 22.3403 10.638 22.206L4.638 20.406C4.0201 20.2206 3.47841 19.841 3.09328 19.3235C2.70815 18.806 2.50011 18.1781 2.5 17.533V6.50898C2.50011 5.86388 2.70815 5.23599 3.09328 4.71847C3.47841 4.20094 4.0201 3.82134 4.638 3.63598L10.638 1.83598V1.83598ZM15.5 4.02098C15.5 3.75576 15.6054 3.50141 15.7929 3.31387C15.9804 3.12634 16.2348 3.02098 16.5 3.02098H19.5C20.2956 3.02098 21.0587 3.33705 21.6213 3.89966C22.1839 4.46227 22.5 5.22533 22.5 6.02098V7.02098C22.5 7.2862 22.3946 7.54055 22.2071 7.72809C22.0196 7.91562 21.7652 8.02098 21.5 8.02098C21.2348 8.02098 20.9804 7.91562 20.7929 7.72809C20.6054 7.54055 20.5 7.2862 20.5 7.02098V6.02098C20.5 5.75576 20.3946 5.50141 20.2071 5.31387C20.0196 5.12634 19.7652 5.02098 19.5 5.02098H16.5C16.2348 5.02098 15.9804 4.91562 15.7929 4.72809C15.6054 4.54055 15.5 4.2862 15.5 4.02098ZM21.5 16.021C21.7652 16.021 22.0196 16.1263 22.2071 16.3139C22.3946 16.5014 22.5 16.7558 22.5 17.021V18.021C22.5 18.8166 22.1839 19.5797 21.6213 20.1423C21.0587 20.7049 20.2956 21.021 19.5 21.021H16.5C16.2348 21.021 15.9804 20.9156 15.7929 20.7281C15.6054 20.5406 15.5 20.2862 15.5 20.021C15.5 19.7558 15.6054 19.5014 15.7929 19.3139C15.9804 19.1263 16.2348 19.021 16.5 19.021H19.5C19.7652 19.021 20.0196 18.9156 20.2071 18.7281C20.3946 18.5406 20.5 18.2862 20.5 18.021V17.021C20.5 16.7558 20.6054 16.5014 20.7929 16.3139C20.9804 16.1263 21.2348 16.021 21.5 16.021ZM9.5 11.021C9.23478 11.021 8.98043 11.1263 8.79289 11.3139C8.60536 11.5014 8.5 11.7558 8.5 12.021C8.5 12.2862 8.60536 12.5406 8.79289 12.7281C8.98043 12.9156 9.23478 13.021 9.5 13.021H9.501C9.76622 13.021 10.0206 12.9156 10.2081 12.7281C10.3956 12.5406 10.501 12.2862 10.501 12.021C10.501 11.7558 10.3956 11.5014 10.2081 11.3139C10.0206 11.1263 9.76622 11.021 9.501 11.021H9.5Z" fill="#EB4335"/>
<path d="M16.5 12.021H21.5M21.5 12.021L19.5 10.021M21.5 12.021L19.5 14.021" stroke="#EB4335" stroke-width="2" stroke-linecap="round" stroke-linejoin="round"/>
</svg>
