<svg width="25" height="25" viewBox="0 0 25 25" fill="none" xmlns="http://www.w3.org/2000/svg">
<path d="M22.5 10.021V15.021C22.5 20.021 20.5 22.021 15.5 22.021H9.5C4.5 22.021 2.5 20.021 2.5 15.021V9.021C2.5 4.021 4.5 2.021 9.5 2.021H14.5" fill="#6D6D6D"/>
<path d="M22.5 10.021V15.021C22.5 20.021 20.5 22.021 15.5 22.021H9.5C4.5 22.021 2.5 20.021 2.5 15.021V9.021C2.5 4.021 4.5 2.021 9.5 2.021H14.5" stroke="white" stroke-width="1.5" stroke-linecap="round" stroke-linejoin="round"/>
<path d="M22.5 10.021H18.5C15.5 10.021 14.5 9.021 14.5 6.021V2.021L22.5 10.021Z" fill="#6D6D6D" stroke="white" stroke-width="1.5" stroke-linecap="round" stroke-linejoin="round"/>
<path d="M7.5 13.021H13.5" stroke="white" stroke-width="1.5" stroke-linecap="round" stroke-linejoin="round"/>
<path d="M7.5 17.021H11.5" stroke="white" stroke-width="1.5" stroke-linecap="round" stroke-linejoin="round"/>
</svg>
