<svg width="24" height="25" viewBox="0 0 24 25" fill="none" xmlns="http://www.w3.org/2000/svg">
<path d="M5.87844 14.1389L5.87956 14.137C6.06476 13.8264 6.22206 13.4185 6.33312 13.0185C6.44414 12.6185 6.52009 12.1862 6.52009 11.821V8.93097C6.52009 5.89711 8.98623 3.43097 12.0201 3.43097C15.0439 3.43097 17.5201 5.90711 17.5201 8.93097V11.821C17.5201 12.1861 17.596 12.6181 17.7054 13.017C17.8149 13.4164 17.9689 13.8222 18.147 14.1308L18.1469 14.1309L18.1517 14.1389L19.3013 16.0482C19.3014 16.0484 19.3015 16.0485 19.3016 16.0486C19.7974 16.8755 19.397 17.9475 18.4931 18.2462L18.4916 18.2467C14.2848 19.6523 9.74637 19.6524 5.53947 18.2471C5.01828 18.0704 4.69392 17.7344 4.55523 17.3598C4.41667 16.9857 4.44421 16.5213 4.72851 16.0488L5.87844 14.1389Z" fill="#6D6D6D" stroke="white" stroke-miterlimit="10" stroke-linecap="round"/>
<path d="M13.6608 3.94126C13.9353 4.02094 14.2311 3.93772 14.4238 3.72667C14.6165 3.51562 14.6725 3.21342 14.5682 2.94734C14.1688 1.92806 13.1771 1.211 12.0199 1.211C10.8628 1.211 9.87108 1.92806 9.47163 2.94734C9.36734 3.21346 9.42337 3.51572 9.61612 3.72677C9.80887 3.93782 10.1048 4.02097 10.3793 3.94119C11.1357 3.72129 11.9525 3.65716 12.8169 3.76521L12.8197 3.76555C13.1034 3.79994 13.3834 3.86072 13.6608 3.94126Z" fill="#6D6D6D" stroke="white" stroke-width="1.5" stroke-miterlimit="10" stroke-linecap="round" stroke-linejoin="round"/>
<mask id="path-3-inside-1_371_4034" fill="white">
<path d="M15.02 19.081C15.02 20.731 13.67 22.081 12.02 22.081C11.2 22.081 10.44 21.741 9.90002 21.201C9.36002 20.661 9.02002 19.901 9.02002 19.081"/>
</mask>
<path d="M15.02 19.081C15.02 20.731 13.67 22.081 12.02 22.081C11.2 22.081 10.44 21.741 9.90002 21.201C9.36002 20.661 9.02002 19.901 9.02002 19.081" fill="#6D6D6D"/>
<path d="M14.02 19.081C14.02 20.1787 13.1177 21.081 12.02 21.081V23.081C14.2223 23.081 16.02 21.2833 16.02 19.081H14.02ZM12.02 21.081C11.4767 21.081 10.9678 20.8546 10.6071 20.4939L9.19291 21.9081C9.91221 22.6274 10.9234 23.081 12.02 23.081V21.081ZM10.6071 20.4939C10.2464 20.1332 10.02 19.6244 10.02 19.081H8.02002C8.02002 20.1776 8.47361 21.1888 9.19291 21.9081L10.6071 20.4939Z" fill="white" mask="url(#path-3-inside-1_371_4034)"/>
</svg>
