<svg width="25" height="25" viewBox="0 0 25 25" fill="none" xmlns="http://www.w3.org/2000/svg">
<path d="M18.54 13.571C18.12 13.981 17.88 14.571 17.94 15.201C18.03 16.281 19.02 17.071 20.1 17.071H22V18.261C22 20.331 20.31 22.021 18.24 22.021H6.76C4.69 22.021 3 20.331 3 18.261V11.531C3 9.46101 4.69 7.771 6.76 7.771H18.24C20.31 7.771 22 9.46101 22 11.531V12.971H19.98C19.42 12.971 18.91 13.191 18.54 13.571Z" fill="#6D6D6D" stroke="white" stroke-width="1.5" stroke-linecap="round" stroke-linejoin="round"/>
<path d="M3 12.431V7.8611C3 6.6711 3.73 5.61106 4.84 5.19106L12.78 2.19106C14.02 1.72106 15.35 2.64109 15.35 3.97109V7.77107" fill="#6D6D6D"/>
<path d="M3 12.431V7.8611C3 6.6711 3.73 5.61106 4.84 5.19106L12.78 2.19106C14.02 1.72106 15.35 2.64109 15.35 3.97109V7.77107" stroke="white" stroke-width="1.5" stroke-linecap="round" stroke-linejoin="round"/>
<path d="M23.0588 13.9911V16.0512C23.0588 16.6012 22.6188 17.0512 22.0588 17.0712H20.0988C19.0188 17.0712 18.0288 16.2812 17.9388 15.2012C17.8788 14.5712 18.1188 13.9812 18.5388 13.5712C18.9088 13.1912 19.4188 12.9712 19.9788 12.9712H22.0588C22.6188 12.9912 23.0588 13.4411 23.0588 13.9911Z" fill="#6D6D6D" stroke="white" stroke-width="1.5" stroke-linecap="round" stroke-linejoin="round"/>
<path d="M7.5 12.021H14.5" stroke="white" stroke-width="1.5" stroke-linecap="round" stroke-linejoin="round"/>
</svg>
