<svg width="26" height="24" viewBox="0 0 26 24" fill="none" xmlns="http://www.w3.org/2000/svg">
<path d="M25.62 18.935V3.3076C25.62 2.47868 25.2907 1.6837 24.7046 1.09756C24.1184 0.511419 23.3235 0.182129 22.4945 0.182129H3.74169C2.91276 0.182129 2.11778 0.511419 1.53164 1.09756C0.945501 1.6837 0.616211 2.47868 0.616211 3.3076L0.616211 18.935H12.0763V21.0186H6.86716V23.1023H19.3691V21.0186H14.1599V18.935H25.62ZM3.74169 2.26578H22.4945C22.7708 2.26578 23.0358 2.37554 23.2312 2.57092C23.4266 2.7663 23.5364 3.03129 23.5364 3.3076V12.684H2.69986V3.3076C2.69986 3.03129 2.80962 2.7663 3.005 2.57092C3.20038 2.37554 3.46538 2.26578 3.74169 2.26578V2.26578ZM2.69986 14.7677H23.5364V16.8513H2.69986V14.7677Z" fill="white"/>
</svg>
