<svg width="26" height="26" viewBox="0 0 26 26" fill="none" xmlns="http://www.w3.org/2000/svg">
<g clip-path="url(#clip0_368_6816)">
<path d="M24.8071 16.9281L23.0975 14.3381L21.3597 15.4841L23.0652 18.0804C23.1855 18.2556 23.2546 18.4609 23.2649 18.6732C23.2752 18.8855 23.2263 19.0965 23.1235 19.2826C23.0197 19.4767 22.8645 19.6385 22.6749 19.7502C22.4852 19.8619 22.2685 19.9193 22.0484 19.9161H13.7711L15.3109 18.3794L13.8399 16.9041L11.2113 19.5264C11.0174 19.7215 10.8638 19.9529 10.7593 20.2074C10.6549 20.4619 10.6016 20.7344 10.6026 21.0095C10.6035 21.2846 10.6587 21.5568 10.765 21.8106C10.8712 22.0643 11.0264 22.2946 11.2218 22.4883L13.8461 25.0606L15.3047 23.5739L13.6982 21.9955H22.0526C22.6484 21.9975 23.2336 21.8379 23.746 21.5337C24.2584 21.2296 24.6788 20.7922 24.9624 20.2682C25.2463 19.7511 25.3821 19.1656 25.3547 18.5763C25.3273 17.987 25.1378 17.4167 24.8071 16.9281V16.9281Z" fill="white"/>
<path d="M12.6056 3.19581C12.8095 3.19515 13.0104 3.24436 13.1909 3.33915C13.3714 3.43394 13.526 3.57143 13.6412 3.73964L18.0929 10.475L15.7853 10.0198L15.3831 12.0638L19.1545 12.8077C19.4247 12.8612 19.7027 12.8605 19.9726 12.8059C20.2425 12.7513 20.4988 12.6437 20.7269 12.4893C20.9549 12.335 21.1501 12.137 21.3012 11.9068C21.4523 11.6766 21.5562 11.4187 21.607 11.1481L22.3196 7.33081L20.2703 6.94846L19.8276 9.32278L15.38 2.59155C15.0744 2.13057 14.6582 1.75356 14.1693 1.49502C13.6803 1.23647 13.1344 1.10465 12.5814 1.11159C12.0284 1.11853 11.4859 1.26403 11.0037 1.53477C10.5214 1.80551 10.1147 2.19285 9.82083 2.66135L8.53418 4.71167L10.298 5.82017L11.5878 3.76673C11.6944 3.59242 11.844 3.44839 12.0222 3.34843C12.2004 3.24847 12.4013 3.19592 12.6056 3.19581V3.19581Z" fill="white"/>
<path d="M7.08051 10.947L7.5285 13.3536L9.57777 12.9754L8.86516 9.15399C8.81447 8.88348 8.71069 8.62568 8.55981 8.3955C8.40894 8.16532 8.21395 7.96731 7.98612 7.8129C7.75829 7.65849 7.50213 7.55076 7.23243 7.4959C6.96272 7.44105 6.68483 7.44017 6.41479 7.49332L2.64546 8.23614L3.04865 10.2802L5.32399 9.83118L0.851439 16.9448C0.540858 17.4362 0.369288 18.0026 0.354979 18.5838C0.340669 19.165 0.484156 19.7391 0.770176 20.2453C1.05383 20.7615 1.47203 21.1912 1.98035 21.4887C2.48867 21.7862 3.0681 21.9405 3.65707 21.9351H7.64622V19.8514H3.65707C3.43994 19.8543 3.2261 19.7982 3.03826 19.6892C2.85042 19.5803 2.6956 19.4225 2.59024 19.2326C2.48677 19.0515 2.4347 18.8455 2.43965 18.6369C2.44461 18.4284 2.50641 18.2251 2.61837 18.0491L7.08051 10.947Z" fill="white"/>
</g>
<defs>
<clipPath id="clip0_368_6816">
<rect width="25.0038" height="25.0038" fill="white" transform="translate(0.353516 0.0571289)"/>
</clipPath>
</defs>
</svg>
