<svg width="26" height="26" viewBox="0 0 26 26" fill="none" xmlns="http://www.w3.org/2000/svg">
<path d="M24.4875 0.678491C23.9083 0.705578 10.2656 1.37756 5.68156 5.96159C3.87509 7.77322 2.80388 10.1899 2.67478 12.745C2.54567 15.3002 3.36783 17.8125 4.9825 19.797L0.616211 24.1633L2.09039 25.6312L6.45564 21.2722C8.44023 22.8873 10.9529 23.7096 13.5084 23.5803C16.0638 23.451 18.4807 22.3793 20.2921 20.5721C24.9678 15.8975 25.5533 2.3402 25.5752 1.76095L25.62 0.627441L24.4875 0.678491ZM18.819 19.099C17.3984 20.5157 15.5107 21.3669 13.5085 21.4938C11.5063 21.6207 9.52627 21.0146 7.93816 19.7887L17.9782 9.74862L16.5051 8.27548L6.46502 18.3155C5.23906 16.7274 4.63296 14.7474 4.75988 12.7452C4.88679 10.743 5.73804 8.85533 7.15471 7.43473C10.4667 4.12276 20.0806 3.09865 23.4228 2.83819C23.179 6.16474 22.1987 15.7193 18.819 19.099Z" fill="white"/>
</svg>
