<svg width="32" height="32" viewBox="0 0 32 32" fill="none" xmlns="http://www.w3.org/2000/svg">
<path d="M13.3021 3.66919H17.9903C18.5368 3.66892 19.0661 3.85956 19.4869 4.20816C19.9077 4.55677 20.1935 5.04143 20.2949 5.57838C20.3963 6.11533 20.3069 6.67083 20.0422 7.14887C19.7775 7.62691 19.354 7.99745 18.8451 8.19644C19.0342 8.9575 19.5906 9.53415 20.4423 10.3733L20.4579 10.389C21.058 10.9797 21.769 11.6798 22.391 12.6127C23.1694 13.7944 23.5393 15.1984 23.4443 16.6102C23.4552 16.7227 23.4599 16.8368 23.4599 16.9525V24.7661C23.4599 25.4519 23.2793 26.1256 22.9364 26.7195C22.5935 27.3134 22.1003 27.8066 21.5064 28.1495C20.9125 28.4924 20.2388 28.6729 19.553 28.6729C18.8672 28.6729 18.1935 28.4924 17.5996 28.1495C17.006 28.4931 16.3321 28.6737 15.6462 28.673C14.9603 28.6737 14.2864 28.4931 13.6928 28.1495C13.0989 28.4924 12.4252 28.6729 11.7394 28.6729C11.0536 28.6729 10.3799 28.4924 9.78598 28.1495C9.19207 27.8066 8.69888 27.3134 8.35597 26.7195C8.01307 26.1256 7.83254 25.4519 7.83252 24.7661V16.9525C7.83252 16.8368 7.83721 16.7227 7.84815 16.6087C7.83797 16.463 7.83275 16.3171 7.83252 16.1711C7.83252 14.0927 8.83111 12.2455 10.3798 10.9734C10.5564 10.7859 10.7298 10.6077 10.8924 10.439L10.8955 10.4374C11.7284 9.5779 12.2723 8.99188 12.4535 8.19957C11.9431 8.00212 11.5178 7.63227 11.2514 7.15413C10.985 6.67599 10.8943 6.11971 10.9951 5.58174C11.0959 5.04376 11.3817 4.558 11.8031 4.20868C12.2244 3.85936 12.7548 3.6685 13.3021 3.66919ZM21.8972 22.422V16.9525C21.8972 16.8665 21.8925 16.7837 21.8847 16.7009C21.8791 16.6526 21.8781 16.604 21.8815 16.5555C21.9667 15.4493 21.6753 14.3467 21.0548 13.4269C20.9679 13.2972 20.8772 13.1701 20.7829 13.0456H10.5173C9.71448 14.0317 9.31869 15.2873 9.41088 16.5555C9.41488 16.6039 9.41436 16.6526 9.40932 16.7009C9.4002 16.7844 9.39551 16.8684 9.39526 16.9525V22.422H21.8972ZM9.39526 23.9848V24.7661C9.39536 25.2076 9.52014 25.6401 9.75523 26.0138C9.99033 26.3875 10.3262 26.6873 10.7241 26.8785C11.1221 27.0697 11.5659 27.1446 12.0046 27.0947C12.4432 27.0447 12.8589 26.8719 13.2036 26.5961C13.3424 26.4848 13.5149 26.4241 13.6928 26.4241C13.8707 26.4241 14.0432 26.4848 14.1819 26.5961C14.5835 26.918 15.0914 27.1103 15.6462 27.1103C16.201 27.1103 16.7089 26.918 17.1105 26.5961C17.2492 26.4848 17.4218 26.4241 17.5996 26.4241C17.7775 26.4241 17.9501 26.4848 18.0888 26.5961C18.4335 26.8719 18.8492 27.0447 19.2878 27.0947C19.7265 27.1446 20.1704 27.0697 20.5683 26.8785C20.9662 26.6873 21.3021 26.3875 21.5372 26.0138C21.7723 25.6401 21.8971 25.2076 21.8972 24.7661V23.9848H9.39526ZM17.2808 8.3574H14.0147C13.7694 9.72011 12.8989 10.6171 12.0769 11.4626L12.0597 11.4829H19.3436L19.278 11.4188C18.4435 10.5984 17.5387 9.70761 17.2808 8.3574ZM13.3021 6.79467H17.9903C18.1975 6.79467 18.3963 6.71234 18.5428 6.56581C18.6894 6.41927 18.7717 6.22053 18.7717 6.0133C18.7717 5.80607 18.6894 5.60732 18.5428 5.46079C18.3963 5.31425 18.1975 5.23193 17.9903 5.23193H13.3021C13.0949 5.23193 12.8961 5.31425 12.7496 5.46079C12.6031 5.60732 12.5207 5.80607 12.5207 6.0133C12.5207 6.22053 12.6031 6.41927 12.7496 6.56581C12.8961 6.71234 13.0949 6.79467 13.3021 6.79467Z" fill="white"/>
</svg>
