<svg width="17" height="25" viewBox="0 0 17 25" fill="none" xmlns="http://www.w3.org/2000/svg">
<path d="M17 8.92857V3.57143H14.5714V8.92857C14.5714 10.1126 13.9318 11.2481 12.7931 12.0853C11.6545 12.9225 10.1102 13.3929 8.5 13.3929C6.88976 13.3929 5.34547 12.9225 4.20685 12.0853C3.06824 11.2481 2.42857 10.1126 2.42857 8.92857V1.78571H9.21157L6.42721 3.83304C6.19957 4.00047 6.07169 4.22753 6.07169 4.46429C6.07169 4.70104 6.19957 4.9281 6.42721 5.09554L7.99729 6.25L5.21293 8.29732L6.92993 9.55982L10.5728 6.88125C10.8004 6.71381 10.9283 6.48675 10.9283 6.25C10.9283 6.01325 10.8004 5.78619 10.5728 5.61875L9.00271 4.46429L13.0014 1.52411C13.1711 1.39924 13.2867 1.24016 13.3336 1.06699C13.3804 0.89382 13.3564 0.714326 13.2645 0.551201C13.1726 0.388076 13.017 0.248645 12.8173 0.150534C12.6177 0.0524233 12.383 3.77003e-05 12.1429 0H1.21429C0.892237 0 0.583379 0.0940686 0.355656 0.261512C0.127934 0.428955 0 0.656057 0 0.892857V8.92857C0.00365344 10.43 0.7417 11.8803 2.07934 13.0147C3.41698 14.149 5.26494 14.8917 7.28571 15.1071V23.2143H1.21429V25H15.7857V23.2143H9.71429V15.1071C11.7351 14.8917 13.583 14.149 14.9207 13.0147C16.2583 11.8803 16.9963 10.43 17 8.92857Z" fill="white"/>
</svg>
