<svg width="25" height="25" viewBox="0 0 25 25" fill="none" xmlns="http://www.w3.org/2000/svg">
<mask id="path-1-outside-1_370_11564" maskUnits="userSpaceOnUse" x="0.770752" y="1.021" width="23" height="22" fill="black">
<rect fill="white" x="0.770752" y="1.021" width="23" height="22"/>
<path d="M12.5001 15.521C11.5718 15.521 10.6816 15.1522 10.0252 14.4959C9.36883 13.8395 9.00008 12.9493 9.00008 12.021C9.00008 11.0927 9.36883 10.2025 10.0252 9.54612C10.6816 8.88975 11.5718 8.521 12.5001 8.521C13.4283 8.521 14.3186 8.88975 14.975 9.54612C15.6313 10.2025 16.0001 11.0927 16.0001 12.021C16.0001 12.9493 15.6313 13.8395 14.975 14.4959C14.3186 15.1522 13.4283 15.521 12.5001 15.521M19.9301 12.991C19.9701 12.671 20.0001 12.351 20.0001 12.021C20.0001 11.691 19.9701 11.361 19.9301 11.021L22.0401 9.391C22.2301 9.241 22.2801 8.971 22.1601 8.751L20.1601 5.291C20.0401 5.071 19.7701 4.981 19.5501 5.071L17.0601 6.071C16.5401 5.681 16.0001 5.341 15.3701 5.091L15.0001 2.441C14.9798 2.32322 14.9184 2.21642 14.8269 2.13955C14.7354 2.06267 14.6196 2.02068 14.5001 2.021H10.5001C10.2501 2.021 10.0401 2.201 10.0001 2.441L9.63008 5.091C9.00008 5.341 8.46008 5.681 7.94008 6.071L5.45008 5.071C5.23008 4.981 4.96008 5.071 4.84008 5.291L2.84008 8.751C2.71008 8.971 2.77008 9.241 2.96008 9.391L5.07008 11.021C5.03008 11.361 5.00008 11.691 5.00008 12.021C5.00008 12.351 5.03008 12.671 5.07008 12.991L2.96008 14.651C2.77008 14.801 2.71008 15.071 2.84008 15.291L4.84008 18.751C4.96008 18.971 5.23008 19.051 5.45008 18.971L7.94008 17.961C8.46008 18.361 9.00008 18.701 9.63008 18.951L10.0001 21.601C10.0401 21.841 10.2501 22.021 10.5001 22.021H14.5001C14.7501 22.021 14.9601 21.841 15.0001 21.601L15.3701 18.951C16.0001 18.691 16.5401 18.361 17.0601 17.961L19.5501 18.971C19.7701 19.051 20.0401 18.971 20.1601 18.751L22.1601 15.291C22.2801 15.071 22.2301 14.801 22.0401 14.651L19.9301 12.991V12.991Z"/>
</mask>
<path d="M12.5001 15.521C11.5718 15.521 10.6816 15.1522 10.0252 14.4959C9.36883 13.8395 9.00008 12.9493 9.00008 12.021C9.00008 11.0927 9.36883 10.2025 10.0252 9.54612C10.6816 8.88975 11.5718 8.521 12.5001 8.521C13.4283 8.521 14.3186 8.88975 14.975 9.54612C15.6313 10.2025 16.0001 11.0927 16.0001 12.021C16.0001 12.9493 15.6313 13.8395 14.975 14.4959C14.3186 15.1522 13.4283 15.521 12.5001 15.521M19.9301 12.991C19.9701 12.671 20.0001 12.351 20.0001 12.021C20.0001 11.691 19.9701 11.361 19.9301 11.021L22.0401 9.391C22.2301 9.241 22.2801 8.971 22.1601 8.751L20.1601 5.291C20.0401 5.071 19.7701 4.981 19.5501 5.071L17.0601 6.071C16.5401 5.681 16.0001 5.341 15.3701 5.091L15.0001 2.441C14.9798 2.32322 14.9184 2.21642 14.8269 2.13955C14.7354 2.06267 14.6196 2.02068 14.5001 2.021H10.5001C10.2501 2.021 10.0401 2.201 10.0001 2.441L9.63008 5.091C9.00008 5.341 8.46008 5.681 7.94008 6.071L5.45008 5.071C5.23008 4.981 4.96008 5.071 4.84008 5.291L2.84008 8.751C2.71008 8.971 2.77008 9.241 2.96008 9.391L5.07008 11.021C5.03008 11.361 5.00008 11.691 5.00008 12.021C5.00008 12.351 5.03008 12.671 5.07008 12.991L2.96008 14.651C2.77008 14.801 2.71008 15.071 2.84008 15.291L4.84008 18.751C4.96008 18.971 5.23008 19.051 5.45008 18.971L7.94008 17.961C8.46008 18.361 9.00008 18.701 9.63008 18.951L10.0001 21.601C10.0401 21.841 10.2501 22.021 10.5001 22.021H14.5001C14.7501 22.021 14.9601 21.841 15.0001 21.601L15.3701 18.951C16.0001 18.691 16.5401 18.361 17.0601 17.961L19.5501 18.971C19.7701 19.051 20.0401 18.971 20.1601 18.751L22.1601 15.291C22.2801 15.071 22.2301 14.801 22.0401 14.651L19.9301 12.991V12.991Z" fill="#6D6D6D"/>
<path d="M9.00008 12.021L8.00008 12.021L9.00008 12.021ZM12.5001 8.521L12.5001 7.521L12.5001 8.521ZM16.0001 12.021L17.0001 12.021L16.0001 12.021ZM19.9301 11.021L19.3187 10.2296L18.8708 10.5757L18.9369 11.1378L19.9301 11.021ZM22.0401 9.391L22.6515 10.1824L22.6597 10.1759L22.0401 9.391ZM22.1601 8.751L23.038 8.27215L23.032 8.26127L23.0259 8.25055L22.1601 8.751ZM20.1601 5.291L19.2822 5.76985L19.2881 5.78072L19.2943 5.79144L20.1601 5.291ZM19.5501 5.071L19.9228 5.99898L19.9287 5.99655L19.5501 5.071ZM17.0601 6.071L16.4601 6.871L16.9104 7.20874L17.4328 6.99896L17.0601 6.071ZM15.3701 5.091L14.3797 5.22928L14.4602 5.80578L15.0012 6.02049L15.3701 5.091ZM15.0001 2.441L15.9905 2.30272L15.9883 2.28684L15.9855 2.27104L15.0001 2.441ZM14.5001 2.021L14.5001 3.021L14.5028 3.02099L14.5001 2.021ZM10.0001 2.441L9.01369 2.2766L9.01152 2.28963L9.00969 2.30272L10.0001 2.441ZM9.63008 5.091L9.99893 6.02049L10.54 5.80578L10.6205 5.22928L9.63008 5.091ZM7.94008 6.071L7.56741 6.99896L8.08976 7.20874L8.54008 6.871L7.94008 6.071ZM5.45008 5.071L5.07144 5.99656L5.07741 5.99896L5.45008 5.071ZM4.84008 5.291L5.70585 5.79144L5.71205 5.78072L5.71798 5.76985L4.84008 5.291ZM2.84008 8.751L3.70105 9.25975L3.70585 9.25144L2.84008 8.751ZM2.96008 9.391L2.3404 10.1759L2.34874 10.1824L2.96008 9.391ZM5.07008 11.021L6.06323 11.1378L6.12937 10.5757L5.68142 10.2296L5.07008 11.021ZM5.07008 12.991L5.6884 13.7769L6.13244 13.4276L6.06236 12.867L5.07008 12.991ZM2.96008 14.651L2.34177 13.8651L2.34044 13.8661L2.96008 14.651ZM2.84008 15.291L3.70589 14.7905L3.70101 14.7823L2.84008 15.291ZM4.84008 18.751L5.71798 18.2721L5.71205 18.2613L5.70585 18.2506L4.84008 18.751ZM5.45008 18.971L5.79183 19.9108L5.80901 19.9045L5.82596 19.8977L5.45008 18.971ZM7.94008 17.961L8.54979 17.1684L8.09542 16.8189L7.56421 17.0343L7.94008 17.961ZM9.63008 18.951L10.6205 18.8127L10.54 18.2362L9.99893 18.0215L9.63008 18.951ZM10.0001 21.601L9.00969 21.7393L9.01152 21.7524L9.01369 21.7654L10.0001 21.601ZM15.0001 21.601L15.9865 21.7654L15.9886 21.7524L15.9905 21.7393L15.0001 21.601ZM15.3701 18.951L14.9886 18.0266L14.4589 18.2452L14.3797 18.8127L15.3701 18.951ZM17.0601 17.961L17.436 17.0343L16.9047 16.8189L16.4504 17.1684L17.0601 17.961ZM19.5501 18.971L19.1742 19.8977L19.1912 19.9045L19.2083 19.9108L19.5501 18.971ZM20.1601 18.751L19.2943 18.2506L19.2881 18.2613L19.2822 18.2721L20.1601 18.751ZM22.1601 15.291L23.0259 15.7914L23.032 15.7807L23.038 15.7699L22.1601 15.291ZM22.0401 14.651L22.6597 13.8661L22.6584 13.8651L22.0401 14.651ZM12.5001 14.521C11.837 14.521 11.2012 14.2576 10.7323 13.7888L9.3181 15.203C10.162 16.0469 11.3066 16.521 12.5001 16.521V14.521ZM10.7323 13.7888C10.2635 13.3199 10.0001 12.684 10.0001 12.021L8.00008 12.021C8.00008 13.2145 8.47419 14.3591 9.3181 15.203L10.7323 13.7888ZM10.0001 12.021C10.0001 11.358 10.2635 10.7221 10.7323 10.2532L9.3181 8.83902C8.47419 9.68293 8.00008 10.8275 8.00008 12.021H10.0001ZM10.7323 10.2532C11.2012 9.78439 11.837 9.521 12.5001 9.521L12.5001 7.521C11.3066 7.521 10.162 7.9951 9.3181 8.83902L10.7323 10.2532ZM12.5001 9.521C13.1631 9.521 13.799 9.78439 14.2679 10.2532L15.6821 8.83902C14.8382 7.9951 13.6936 7.521 12.5001 7.521L12.5001 9.521ZM14.2679 10.2532C14.7367 10.7221 15.0001 11.358 15.0001 12.021L17.0001 12.021C17.0001 10.8275 16.526 9.68293 15.6821 8.83902L14.2679 10.2532ZM15.0001 12.021C15.0001 12.684 14.7367 13.3199 14.2679 13.7888L15.6821 15.203C16.526 14.3591 17.0001 13.2145 17.0001 12.021L15.0001 12.021ZM14.2679 13.7888C13.799 14.2576 13.1631 14.521 12.5001 14.521V16.521C13.6936 16.521 14.8382 16.0469 15.6821 15.203L14.2679 13.7888ZM20.9224 13.115C20.9647 12.7765 21.0001 12.4103 21.0001 12.021H19.0001C19.0001 12.2917 18.9755 12.5655 18.9378 12.867L20.9224 13.115ZM21.0001 12.021C21.0001 11.633 20.9649 11.258 20.9232 10.9042L18.9369 11.1378C18.9753 11.464 19.0001 11.749 19.0001 12.021H21.0001ZM20.5414 11.8124L22.6514 10.1824L21.4287 8.59963L19.3187 10.2296L20.5414 11.8124ZM22.6597 10.1759C23.2552 9.70578 23.3771 8.8939 23.038 8.27215L21.2822 9.22985C21.1831 9.0481 21.205 8.77622 21.4204 8.60612L22.6597 10.1759ZM23.0259 8.25055L21.0259 4.79055L19.2943 5.79144L21.2943 9.25144L23.0259 8.25055ZM21.038 4.81215C20.6716 4.14044 19.8582 3.86452 19.1715 4.14545L19.9287 5.99655C19.682 6.09748 19.4086 6.00155 19.2822 5.76985L21.038 4.81215ZM19.1774 4.14304L16.6874 5.14304L17.4328 6.99896L19.9228 5.99896L19.1774 4.14304ZM17.6601 5.271C17.097 4.84872 16.4785 4.455 15.7389 4.16151L15.0012 6.02049C15.5216 6.227 15.9831 6.51328 16.4601 6.871L17.6601 5.271ZM16.3605 4.95272L15.9905 2.30272L14.0097 2.57928L14.3797 5.22928L16.3605 4.95272ZM15.9855 2.27104C15.9251 1.92048 15.7425 1.60265 15.4701 1.37384L14.1837 2.90525C14.0944 2.8302 14.0345 2.72595 14.0146 2.61095L15.9855 2.27104ZM15.4701 1.37384C15.1977 1.14504 14.8531 1.02004 14.4974 1.021L14.5028 3.02099C14.3861 3.02131 14.2731 2.98031 14.1837 2.90525L15.4701 1.37384ZM14.5001 1.021H10.5001V3.021H14.5001V1.021ZM10.5001 1.021C9.76334 1.021 9.1344 1.55235 9.01369 2.2766L10.9865 2.6054C10.9458 2.84965 10.7368 3.021 10.5001 3.021V1.021ZM9.00969 2.30272L8.63969 4.95272L10.6205 5.22928L10.9905 2.57928L9.00969 2.30272ZM9.26124 4.16151C8.52165 4.455 7.90312 4.84872 7.34008 5.271L8.54008 6.871C9.01704 6.51328 9.47852 6.227 9.99893 6.02049L9.26124 4.16151ZM8.31276 5.14304L5.82276 4.14304L5.07741 5.99896L7.56741 6.99896L8.31276 5.14304ZM5.82872 4.14545C5.14199 3.86452 4.32857 4.14044 3.96219 4.81215L5.71798 5.76985C5.5916 6.00155 5.31818 6.09748 5.07145 5.99655L5.82872 4.14545ZM3.97432 4.79055L1.97431 8.25055L3.70585 9.25144L5.70585 5.79144L3.97432 4.79055ZM1.97916 8.24227C1.58483 8.90959 1.77288 9.7278 2.34044 10.1759L3.57973 8.60612C3.76729 8.75419 3.83533 9.03241 3.70101 9.25973L1.97916 8.24227ZM2.34874 10.1824L4.45874 11.8124L5.68142 10.2296L3.57142 8.59963L2.34874 10.1824ZM4.07693 10.9042C4.03531 11.258 4.00008 11.633 4.00008 12.021H6.00008C6.00008 11.749 6.02486 11.464 6.06323 11.1378L4.07693 10.9042ZM4.00008 12.021C4.00008 12.4103 4.03549 12.7765 4.07781 13.115L6.06236 12.867C6.02468 12.5655 6.00008 12.2917 6.00008 12.021H4.00008ZM4.45177 12.2051L2.34177 13.8651L3.5784 15.4369L5.6884 13.7769L4.45177 12.2051ZM2.34044 13.8661C1.77288 14.3142 1.58483 15.1324 1.97916 15.7997L3.70101 14.7823C3.83533 15.0096 3.76729 15.2878 3.57973 15.4359L2.34044 13.8661ZM1.97431 15.7914L3.97432 19.2514L5.70585 18.2506L3.70585 14.7906L1.97431 15.7914ZM3.96219 19.2298C4.34598 19.9335 5.16243 20.1397 5.79183 19.9108L5.10834 18.0312C5.21882 17.991 5.33087 17.9931 5.43026 18.027C5.53507 18.0627 5.64719 18.1424 5.71798 18.2721L3.96219 19.2298ZM5.82596 19.8977L8.31596 18.8877L7.56421 17.0343L5.07421 18.0443L5.82596 19.8977ZM7.33037 18.7536C7.89978 19.1916 8.52063 19.5866 9.26124 19.8805L9.99893 18.0215C9.47953 17.8154 9.02039 17.5304 8.54979 17.1684L7.33037 18.7536ZM8.63969 19.0893L9.00969 21.7393L10.9905 21.4627L10.6205 18.8127L8.63969 19.0893ZM9.01369 21.7654C9.1344 22.4896 9.76334 23.021 10.5001 23.021V21.021C10.7368 21.021 10.9458 21.1923 10.9865 21.4366L9.01369 21.7654ZM10.5001 23.021H14.5001V21.021H10.5001V23.021ZM14.5001 23.021C15.2368 23.021 15.8658 22.4896 15.9865 21.7654L14.0137 21.4366C14.0544 21.1923 14.2633 21.021 14.5001 21.021V23.021ZM15.9905 21.7393L16.3605 19.0893L14.3797 18.8127L14.0097 21.4627L15.9905 21.7393ZM15.7516 19.8754C16.4761 19.5763 17.092 19.1981 17.6698 18.7536L16.4504 17.1684C15.9882 17.5239 15.524 17.8057 14.9886 18.0266L15.7516 19.8754ZM16.6842 18.8877L19.1742 19.8977L19.926 18.0443L17.436 17.0343L16.6842 18.8877ZM19.2083 19.9108C19.8377 20.1397 20.6542 19.9335 21.038 19.2298L19.2822 18.2721C19.353 18.1424 19.4651 18.0627 19.5699 18.027C19.6693 17.9931 19.7813 17.991 19.8918 18.0312L19.2083 19.9108ZM21.0259 19.2514L23.0259 15.7914L21.2943 14.7906L19.2943 18.2506L21.0259 19.2514ZM23.038 15.7699C23.3771 15.1481 23.2552 14.3362 22.6597 13.8661L21.4204 15.4359C21.205 15.2658 21.1831 14.9939 21.2822 14.8121L23.038 15.7699ZM22.6584 13.8651L20.5484 12.2051L19.3118 13.7769L21.4218 15.4369L22.6584 13.8651Z" fill="white" mask="url(#path-1-outside-1_370_11564)"/>
</svg>
