<svg width="24" height="24" viewBox="0 0 24 24" fill="none" xmlns="http://www.w3.org/2000/svg">
<g clip-path="url(#clip0_201_5200)">
<path d="M24 13V11H18.928C18.8483 10.4439 18.7012 9.89957 18.49 9.379L22.882 6.822L21.876 5.094L17.482 7.652C17.146 7.2297 16.7629 6.84722 16.34 6.512L18.89 2.127L17.162 1.121L14.612 5.506C14.0942 5.29672 13.5529 5.15099 13 5.072V0H11V5.072C10.4514 5.14998 9.91424 5.29368 9.4 5.5L6.854 1.121L5.126 2.127L7.671 6.5C7.24584 6.83659 6.86096 7.22114 6.524 7.646L2.14 5.094L1.134 6.822L5.513 9.371C5.2999 9.89391 5.15179 10.441 5.072 11H0V13H5.072C5.15185 13.5564 5.29893 14.101 5.51 14.622L1.141 17.165L2.147 18.894L6.519 16.348C6.85142 16.7668 7.23054 17.1462 7.649 17.479L5.1 21.865L6.829 22.871L9.377 18.489C9.89812 18.7008 10.4432 18.8483 11 18.928V24H13V18.928C13.5622 18.8475 14.1123 18.698 14.638 18.483L17.19 22.871L18.918 21.865L16.362 17.47C16.7784 17.1376 17.1558 16.7592 17.487 16.342L21.87 18.894L22.87 17.165L18.488 14.614C18.6993 14.0957 18.8471 13.5538 18.928 13H24ZM17 12C16.79 18.608 7.209 18.606 7 12C7.21 5.392 16.791 5.394 17 12Z" fill="#151515"/>
</g>
<defs>
<clipPath id="clip0_201_5200">
<rect width="24" height="24" fill="white"/>
</clipPath>
</defs>
</svg>
