<svg width="21" height="21" viewBox="0 0 21 21" fill="none" xmlns="http://www.w3.org/2000/svg">
<g clip-path="url(#clip0_285_6567)">
<path d="M17.6841 1.40201H2.52609C1.85607 1.40201 1.21348 1.66817 0.739703 2.14195C0.265923 2.61573 -0.000244141 3.25832 -0.000244141 3.92834L-0.000244141 19.9285H20.2104V3.92834C20.2104 3.25832 19.9443 2.61573 19.4705 2.14195C18.9967 1.66817 18.3541 1.40201 17.6841 1.40201ZM2.52609 3.08623H17.6841C17.9075 3.08623 18.1217 3.17495 18.2796 3.33288C18.4375 3.49081 18.5262 3.705 18.5262 3.92834V4.49003L11.8921 11.125C11.4175 11.5977 10.7749 11.8631 10.1051 11.8631C9.43527 11.8631 8.79273 11.5977 8.31814 11.125L1.68398 4.49003V3.92834C1.68398 3.705 1.7727 3.49081 1.93063 3.33288C2.08856 3.17495 2.30275 3.08623 2.52609 3.08623ZM1.68398 18.2443V6.87574L7.12739 12.3158C7.91782 13.1042 8.98868 13.547 10.1051 13.547C11.2215 13.547 12.2924 13.1042 13.0828 12.3158L18.5262 6.87574V18.2443H1.68398Z" fill="#374957"/>
</g>
<defs>
<clipPath id="clip0_285_6567">
<rect width="20.2107" height="20.2107" fill="white" transform="translate(-0.000244141 0.559692)"/>
</clipPath>
</defs>
</svg>
