<svg width="21" height="22" viewBox="0 0 21 22" fill="none" xmlns="http://www.w3.org/2000/svg">
<g clip-path="url(#clip0_285_6570)">
<path d="M11.9579 14.615C9.50601 13.5768 7.55624 11.6225 6.52376 9.16822L9.38694 6.29999L4.11532 1.02415L1.44498 3.69365C0.981823 4.15946 0.615628 4.71249 0.367586 5.32074C0.119544 5.92899 -0.00542162 6.5804 -7.98434e-05 7.23726C-7.98434e-05 13.3409 7.79114 21.1321 13.8948 21.1321C14.5516 21.1379 15.203 21.0131 15.8111 20.765C16.4193 20.5169 16.9721 20.1505 17.4375 19.687L20.1079 17.0167L14.832 11.7409L11.9579 14.615ZM16.2459 18.4963C15.9367 18.8029 15.5696 19.0449 15.1659 19.2082C14.7623 19.3716 14.3302 19.4531 13.8948 19.4479C8.64589 19.4479 1.68414 12.4861 1.68414 7.23726C1.67919 6.80174 1.76075 6.36958 1.9241 5.96583C2.08745 5.56208 2.32933 5.19478 2.63573 4.88524L4.11532 3.40565L7.00966 6.29999L4.53806 8.77159L4.74438 9.28864C5.35175 10.9133 6.30124 12.3885 7.52853 13.6142C8.75581 14.8399 10.2322 15.7874 11.8577 16.3927L12.368 16.5872L14.832 14.1224L17.7264 17.0167L16.2459 18.4963ZM11.7895 2.60564V0.921417C14.0222 0.923869 16.1627 1.81188 17.7414 3.39061C19.3201 4.96935 20.2082 7.10987 20.2106 9.34254H18.5264C18.5244 7.55642 17.814 5.84403 16.551 4.58105C15.288 3.31807 13.5756 2.60765 11.7895 2.60564ZM11.7895 5.97409V4.28987C13.1291 4.2912 14.4135 4.82397 15.3608 5.77124C16.3081 6.71851 16.8408 8.0029 16.8422 9.34254H15.1579C15.1579 8.44917 14.803 7.59239 14.1713 6.96069C13.5396 6.32898 12.6829 5.97409 11.7895 5.97409Z" fill="#374957"/>
</g>
<defs>
<clipPath id="clip0_285_6570">
<rect width="20.2107" height="20.2107" fill="white" transform="translate(-0.000244141 0.921417)"/>
</clipPath>
</defs>
</svg>
