<svg width="24" height="25" viewBox="0 0 24 25" fill="none" xmlns="http://www.w3.org/2000/svg">
<g clip-path="url(#clip0_370_9526)">
<path d="M16.5 14.0207V19.5207H14C13.6021 19.5207 13.2206 19.6787 12.9393 19.96C12.658 20.2413 12.5 20.6229 12.5 21.0207C12.5 21.4185 12.658 21.8 12.9393 22.0814C13.2206 22.3627 13.6021 22.5207 14 22.5207L19 22.5207L19.0014 22.5207C20.2621 22.5169 21.4831 22.0802 22.4602 21.2837C23.4373 20.4872 24.1111 19.3792 24.3688 18.1452C24.6266 16.9112 24.4526 15.6261 23.876 14.5051C23.3499 13.4823 22.5179 12.6528 21.5 12.1294V11.0207C21.5 8.50113 20.4991 6.08477 18.7175 4.30318C16.9359 2.52158 14.5195 1.52069 12 1.52069C9.4804 1.52069 7.06403 2.52158 5.28244 4.30318C3.50084 6.08477 2.49995 8.50113 2.49995 11.0207V12.1294C1.482 12.6528 0.649986 13.4823 0.12394 14.5051C-0.452657 15.6261 -0.626657 16.9112 -0.368931 18.1452C-0.111205 19.3792 0.562604 20.4872 1.53969 21.2837C2.51678 22.0802 3.73784 22.5169 4.99846 22.5207L4.99995 22.0207V22.5207C5.66299 22.5207 6.29888 22.2573 6.76772 21.7885C7.23656 21.3196 7.49995 20.6837 7.49995 20.0207V14.0207C7.49995 13.3576 7.23656 12.7218 6.76772 12.2529C6.41853 11.9037 5.97667 11.6685 5.49995 11.5712V11.0207C5.49995 9.29678 6.18477 7.64348 7.40376 6.4245C8.62274 5.20551 10.276 4.52069 12 4.52069C13.7239 4.52069 15.3772 5.20551 16.5961 6.4245C17.8151 7.64348 18.5 9.29678 18.5 11.0207V11.5712C18.0232 11.6685 17.5814 11.9037 17.2322 12.2529C16.7633 12.7218 16.5 13.3576 16.5 14.0207Z" fill="#6D6D6D" stroke="white"/>
</g>
<defs>
<clipPath id="clip0_370_9526">
<rect width="24" height="24" fill="white" transform="translate(0 0.0209961)"/>
</clipPath>
</defs>
</svg>
