<svg width="21" height="22" viewBox="0 0 21 22" fill="none" xmlns="http://www.w3.org/2000/svg">
<g clip-path="url(#clip0_285_6565)">
<path d="M10.3513 11.2952C11.0337 11.2952 11.7008 11.0928 12.2682 10.7137C12.8356 10.3346 13.2779 9.79569 13.539 9.16521C13.8002 8.53472 13.8685 7.84096 13.7354 7.17164C13.6023 6.50232 13.2736 5.88752 12.7911 5.40497C12.3085 4.92242 11.6937 4.59379 11.0244 4.46066C10.3551 4.32752 9.66133 4.39585 9.03085 4.65701C8.40037 4.91816 7.86149 5.36041 7.48235 5.92783C7.10321 6.49525 6.90085 7.16235 6.90085 7.84478C6.90085 8.75989 7.26437 9.63752 7.91145 10.2846C8.55853 10.9317 9.43616 11.2952 10.3513 11.2952ZM10.3513 6.11957C10.6925 6.11957 11.026 6.22075 11.3097 6.41032C11.5935 6.59989 11.8146 6.86933 11.9452 7.18457C12.0757 7.49982 12.1099 7.8467 12.0433 8.18136C11.9768 8.51602 11.8125 8.82342 11.5712 9.06469C11.3299 9.30597 11.0225 9.47028 10.6878 9.53685C10.3532 9.60341 10.0063 9.56925 9.69106 9.43867C9.37582 9.3081 9.10638 9.08697 8.91681 8.80326C8.72724 8.51955 8.62606 8.186 8.62606 7.84478C8.62606 7.38723 8.80782 6.94841 9.13136 6.62488C9.4549 6.30133 9.89372 6.11957 10.3513 6.11957ZM13.8017 19.9471L20.7025 21.6275V12.5745C20.7024 12.0188 20.5234 11.478 20.192 11.032C19.8606 10.586 19.3945 10.2585 18.8626 10.0979L17.0511 9.49409C17.1836 8.95605 17.2511 8.40406 17.2521 7.84996C17.2521 6.01974 16.5251 4.26448 15.2309 2.97032C13.9367 1.67616 12.1815 0.949112 10.3513 0.949112C8.52105 0.949112 6.7658 1.67616 5.47164 2.97032C4.17748 4.26448 3.45042 6.01974 3.45042 7.84996C3.45298 8.20012 3.48181 8.5496 3.53669 8.89544C3.14495 8.73927 2.72091 8.68147 2.30167 8.7271C1.88242 8.77273 1.48075 8.92039 1.13178 9.15718C0.782811 9.39397 0.497183 9.71266 0.299881 10.0854C0.10258 10.4581 -0.000382316 10.8735 1.06673e-06 11.2952V19.7073L6.88618 21.6749L13.8017 19.9471ZM6.69124 4.19079C7.6636 3.23222 8.97536 2.69673 10.3408 2.70096C11.7062 2.7052 13.0146 3.24881 13.981 4.2134C14.9474 5.17798 15.4935 6.48536 15.5003 7.85076C15.5071 9.21615 14.9741 10.5289 14.0173 11.5031L10.3513 15.0907L6.69124 11.51C5.72069 10.5394 5.17545 9.223 5.17545 7.85039C5.17545 6.47779 5.72069 5.1614 6.69124 4.19079ZM1.72521 11.2952C1.72412 11.1529 1.75878 11.0127 1.826 10.8873C1.89322 10.7619 1.99085 10.6554 2.10994 10.5775C2.23451 10.4958 2.37801 10.4474 2.52666 10.4372C2.67531 10.4269 2.82411 10.455 2.95874 10.5189L4.19572 10.9657C4.52666 11.6211 4.95962 12.2197 5.47841 12.7392L10.3513 17.506L15.231 12.7332C15.7109 12.254 16.1177 11.7071 16.4387 11.1097L18.3511 11.7489C18.5312 11.8005 18.6897 11.9092 18.8025 12.0588C18.9153 12.2083 18.9764 12.3906 18.9765 12.5779V19.4348L13.8017 18.1702L6.9181 19.8954L1.72521 18.4083V11.2952Z" fill="#374957"/>
</g>
<defs>
<clipPath id="clip0_285_6565">
<rect width="20.7025" height="20.7025" fill="white" transform="translate(0 0.943848)"/>
</clipPath>
</defs>
</svg>
