<svg width="49" height="49" viewBox="0 0 49 49" fill="none" xmlns="http://www.w3.org/2000/svg">
<path d="M44.9171 8.16667H34.7087V4.08333C34.7087 3.00037 34.2785 1.96175 33.5128 1.19598C32.747 0.430207 31.7084 0 30.6254 0L18.3754 0C17.2924 0 16.2538 0.430207 15.4881 1.19598C14.7223 1.96175 14.2921 3.00037 14.2921 4.08333V8.16667H4.08374V12.25H8.16707V42.875C8.16707 44.4994 8.81238 46.0574 9.96104 47.206C11.1097 48.3547 12.6676 49 14.2921 49H34.7087C36.3332 49 37.8911 48.3547 39.0398 47.206C40.1884 46.0574 40.8337 44.4994 40.8337 42.875V12.25H44.9171V8.16667ZM18.3754 4.08333H30.6254V8.16667H18.3754V4.08333ZM36.7504 42.875C36.7504 43.4165 36.5353 43.9358 36.1524 44.3187C35.7695 44.7016 35.2502 44.9167 34.7087 44.9167H14.2921C13.7506 44.9167 13.2313 44.7016 12.8484 44.3187C12.4655 43.9358 12.2504 43.4165 12.2504 42.875V12.25H36.7504V42.875Z" fill="#0096FF"/>
<path d="M22.4583 20.4154H18.375V36.7487H22.4583V20.4154Z" fill="#0096FF"/>
<path d="M30.6261 20.4154H26.5427V36.7487H30.6261V20.4154Z" fill="#0096FF"/>
</svg>
