<svg width="44" height="44" viewBox="0 0 44 44" fill="none" xmlns="http://www.w3.org/2000/svg">
<g clip-path="url(#clip0_319_6561)">
<path d="M40.3335 7.33332H31.1669V3.66665C31.1669 2.69419 30.7806 1.76156 30.0929 1.07393C29.4053 0.386293 28.4727 -1.52588e-05 27.5002 -1.52588e-05L16.5002 -1.52588e-05C15.5277 -1.52588e-05 14.5951 0.386293 13.9075 1.07393C13.2198 1.76156 12.8335 2.69419 12.8335 3.66665V7.33332H3.66687V11H7.33354V38.5C7.33354 39.9587 7.913 41.3576 8.94445 42.3891C9.9759 43.4205 11.3748 44 12.8335 44H31.1669C32.6256 44 34.0245 43.4205 35.056 42.3891C36.0874 41.3576 36.6669 39.9587 36.6669 38.5V11H40.3335V7.33332ZM16.5002 3.66665H27.5002V7.33332H16.5002V3.66665ZM33.0002 38.5C33.0002 38.9862 32.8071 39.4525 32.4632 39.7963C32.1194 40.1402 31.6531 40.3333 31.1669 40.3333H12.8335C12.3473 40.3333 11.881 40.1402 11.5372 39.7963C11.1934 39.4525 11.0002 38.9862 11.0002 38.5V11H33.0002V38.5Z" fill="#151515"/>
<path d="M20.1667 18.3322H16.5V32.9988H20.1667V18.3322Z" fill="#151515"/>
<path d="M27.5004 18.3322H23.8337V32.9988H27.5004V18.3322Z" fill="#151515"/>
</g>
<defs>
<clipPath id="clip0_319_6561">
<rect width="44" height="44" fill="white"/>
</clipPath>
</defs>
</svg>
