<svg width="118" height="118" viewBox="0 0 118 118" fill="none" xmlns="http://www.w3.org/2000/svg">
<path d="M108.167 19.6667H83.5835V9.83333C83.5835 7.22537 82.5475 4.72422 80.7034 2.88012C78.8593 1.03601 76.3581 0 73.7502 0L44.2502 0C41.6422 0 39.1411 1.03601 37.2969 2.88012C35.4528 4.72422 34.4168 7.22537 34.4168 9.83333V19.6667H9.8335V29.5H19.6668V103.25C19.6668 107.162 21.2208 110.914 23.987 113.68C26.7532 116.446 30.5049 118 34.4168 118H83.5835C87.4954 118 91.2472 116.446 94.0133 113.68C96.7795 110.914 98.3335 107.162 98.3335 103.25V29.5H108.167V19.6667ZM44.2502 9.83333H73.7502V19.6667H44.2502V9.83333ZM88.5002 103.25C88.5002 104.554 87.9822 105.805 87.0601 106.727C86.1381 107.649 84.8875 108.167 83.5835 108.167H34.4168C33.1128 108.167 31.8623 107.649 30.9402 106.727C30.0182 105.805 29.5002 104.554 29.5002 103.25V29.5H88.5002V103.25Z" fill="#F7931A"/>
<path d="M54.0833 49.1637H44.25V88.497H54.0833V49.1637Z" fill="#F7931A"/>
<path d="M73.7499 49.1637H63.9165V88.497H73.7499V49.1637Z" fill="#F7931A"/>
</svg>
