<svg width="45" height="45" viewBox="0 0 45 45" fill="none" xmlns="http://www.w3.org/2000/svg">
<g clip-path="url(#clip0_222_6225)">
<path d="M30.2978 9.89734L23.1614 9.86065C22.9901 9.85994 22.8204 9.89316 22.6621 9.95837C22.5037 10.0236 22.3599 10.1195 22.2388 10.2406C22.1177 10.3617 22.0218 10.5055 21.9566 10.6639C21.8914 10.8222 21.8581 10.9919 21.8588 11.1632C21.8599 11.5059 21.9965 11.8343 22.2388 12.0766C22.4811 12.3189 22.8095 12.4555 23.1522 12.4565L29.7108 12.4841L11.0074 31.1874C10.7642 31.4307 10.6275 31.7606 10.6275 32.1047C10.6275 32.4487 10.7642 32.7787 11.0074 33.022V33.022C11.2507 33.2652 11.5807 33.4019 11.9247 33.4019C12.2688 33.4019 12.5987 33.2652 12.842 33.022L31.6004 14.2636L31.5912 20.8955C31.5905 21.0668 31.6237 21.2365 31.6889 21.3948C31.7541 21.5532 31.85 21.697 31.9711 21.8181C32.0922 21.9392 32.2361 22.0351 32.3944 22.1003C32.5528 22.1655 32.7225 22.1988 32.8937 22.1981C33.065 22.1988 33.2347 22.1655 33.393 22.1003C33.5514 22.0351 33.6952 21.9392 33.8163 21.8181C33.9374 21.697 34.0333 21.5532 34.0985 21.3948C34.1637 21.2365 34.197 21.0668 34.1963 20.8955L34.1871 13.7866C34.1864 12.7553 33.7765 11.7664 33.0472 11.0372C32.318 10.3079 31.3291 9.89798 30.2978 9.89734Z" fill="#EB4335"/>
</g>
<defs>
<clipPath id="clip0_222_6225">
<rect width="31.1335" height="31.1335" fill="white" transform="translate(0 22.0146) rotate(-45)"/>
</clipPath>
</defs>
</svg>
