<svg width="21" height="21" viewBox="0 0 21 21" fill="none" xmlns="http://www.w3.org/2000/svg">
<g clip-path="url(#clip0_1_3979)">
<path d="M10.2814 4.40011C9.95176 4.39955 9.62528 4.46413 9.32071 4.59015C9.01613 4.71618 8.73947 4.90114 8.50661 5.13443L5.2289 8.41465L6.41152 9.59393L9.45003 6.55458L9.47177 20.291H11.1445L11.1228 6.56796L14.1504 9.5956L15.333 8.41465L12.0553 5.13694C11.8227 4.90334 11.5463 4.71799 11.2419 4.59154C10.9374 4.46509 10.611 4.40003 10.2814 4.40011Z" fill="white"/>
<path d="M1.94473 6.90894V2.72713C1.94473 2.50531 2.03284 2.29258 2.18969 2.13573C2.34654 1.97888 2.55927 1.89076 2.78109 1.89076L17.8356 1.89076C18.0575 1.89076 18.2702 1.97888 18.427 2.13573C18.5839 2.29258 18.672 2.50531 18.672 2.72713V6.90894H20.3447V2.72713C20.3447 2.06167 20.0804 1.42348 19.6098 0.952933C19.1393 0.482388 18.5011 0.21804 17.8356 0.21804L2.78109 0.21804C2.11564 0.21804 1.47744 0.482388 1.0069 0.952933C0.53635 1.42348 0.271999 2.06167 0.271999 2.72713V6.90894H1.94473Z" fill="white"/>
</g>
<defs>
<clipPath id="clip0_1_3979">
<rect width="20.0727" height="20.0727" fill="white" transform="matrix(-1 0 0 -1 20.3447 20.291)"/>
</clipPath>
</defs>
</svg>
